<svg xmlns="http://www.w3.org/2000/svg" viewBox="0 0 40 40"><ellipse cx="21" cy="35.6" rx="10" ry="2.2" fill="#03121f" opacity=".3"/><g fill="none" stroke-linecap="round" stroke-linejoin="round"><path d="M20 10.4v21.6" stroke="#8c806c" stroke-width="3.6"/><path d="M20 10.4v21.6" stroke="#efe8da" stroke-width="2.16" transform="translate(-.36 -.36)"/><path d="M20 10.4v21.6" stroke="#ffffff" stroke-width=".7" transform="translate(-.79 -.79)" opacity=".85"/></g><g fill="none" stroke-linecap="round" stroke-linejoin="round"><path d="M13 14h14" stroke="#8c806c" stroke-width="3"/><path d="M13 14h14" stroke="#efe8da" stroke-width="1.8" transform="translate(-.3 -.3)"/><path d="M13 14h14" stroke="#ffffff" stroke-width=".7" transform="translate(-.66 -.66)" opacity=".85"/></g><g fill="none" stroke-linecap="round" stroke-linejoin="round"><path d="M9.4 22.6c0 6.4 4.6 9.6 10.6 9.6s10.6-3.2 10.6-9.6" stroke="#8c806c" stroke-width="3.4"/><path d="M9.4 22.6c0 6.4 4.6 9.6 10.6 9.6s10.6-3.2 10.6-9.6" stroke="#efe8da" stroke-width="2.04" transform="translate(-.34 -.34)"/><path d="M9.4 22.6c0 6.4 4.6 9.6 10.6 9.6s10.6-3.2 10.6-9.6" stroke="#ffffff" stroke-width=".7" transform="translate(-.75 -.75)" opacity=".85"/></g><circle cx="20" cy="7" r="2.6" fill="none" stroke="#8c806c" stroke-width="2.4"/><circle cx="19.6" cy="6.6" r="2.6" fill="none" stroke="#efe8da" stroke-width="1.4"/><path d="M6.6 24.4l2.8-4 2.8 4zM27.8 24.4l2.8-4 2.8 4z" fill="#efe8da" stroke="#8c806c" stroke-width=".6"/></svg>