<svg xmlns="http://www.w3.org/2000/svg" viewBox="0 0 40 40"><ellipse cx="21" cy="34.6" rx="13" ry="2.86" fill="#03121f" opacity=".3"/><defs><path id="s1" d="M7 30L5 13l8 6 7-11 7 11 8-6-2 17z"/></defs><use href="#s1" fill="#8f5f08"/><use href="#s1" fill="#f0b93a" transform="translate(-1.1 -1.1)"/><path d="M6.2 15.4l1.4 11.6M13 18.4l6.4-9.6" fill="none" stroke="#fff3c0" stroke-width="1.2" stroke-linecap="round" opacity=".9"/><defs><path id="s2" d="M7 27h26v5H7z"/></defs><use href="#s2" fill="#8f5f08"/><use href="#s2" fill="#f0b93a" transform="translate(-.8 -.8)"/><path d="M7.6 27.6h14" fill="none" stroke="#fff3c0" stroke-width="1" stroke-linecap="round" opacity=".9"/><circle cx="20" cy="22" r="2.6" fill="#7e120b"/><circle cx="19.69" cy="21.69" r="2.13" fill="#e0392e"/><ellipse cx="18.96" cy="20.91" rx=".73" ry=".39" fill="#ffb3a8" transform="rotate(-40 18.96 20.91)"/><circle cx="12.4" cy="24" r="1.8" fill="#0c3f66"/><circle cx="12.18" cy="23.78" r="1.48" fill="#2f8fcf"/><ellipse cx="11.68" cy="23.24" rx=".5" ry=".27" fill="#cdefff" transform="rotate(-40 11.68 23.24)"/><circle cx="27.6" cy="24" r="1.8" fill="#0c3f66"/><circle cx="27.38" cy="23.78" r="1.48" fill="#2f8fcf"/><ellipse cx="26.88" cy="23.24" rx=".5" ry=".27" fill="#cdefff" transform="rotate(-40 26.88 23.24)"/></svg>