<svg xmlns="http://www.w3.org/2000/svg" viewBox="0 0 40 40"><path d="M22 12l16-5v10zM18 12L2 7v10z" fill="#ffe08a" opacity=".45"/><defs><path id="s1" d="M6 36c3-3 8-4 14-4s11 1 14 4z"/></defs><use href="#s1" fill="#141e28"/><use href="#s1" fill="#3d5166" transform="translate(-.8 -.8)"/><path d="M14.6 33l2.6-19h2.8v19z" fill="#f1ebdf"/><path d="M20 14h2.8l2.6 19H20z" fill="#a89c88"/><path d="M16.2 20.6h7.6l.5 3.4h-8.6zM15.4 26.4h9.2l.4 3.2h-10z" fill="#d8392e"/><path d="M20 20.6h3.8l.5 3.4H20zM20 26.4h4.6l.4 3.2h-5z" fill="#8e1c14"/><path d="M15.6 9.4h8.8V14h-8.8z" fill="#10304c"/><circle cx="20" cy="11.7" r="1.8" fill="#fff3cf"/><path d="M14.4 9.6L20 5l5.6 4.6z" fill="#d8392e"/><path d="M20 5l5.6 4.6H20z" fill="#8e1c14"/><path d="M16.4 32l2-17" stroke="#fff" stroke-width=".9" stroke-linecap="round" opacity=".8"/></svg>