<svg xmlns="http://www.w3.org/2000/svg" viewBox="0 0 60 45" preserveAspectRatio="xMidYMid slice"><style>.r,.k{fill:none;vector-effect:non-scaling-stroke;stroke-linecap:round;stroke-linejoin:round}.r{stroke:#f4fbff;stroke-width:1.2px;opacity:.85}.k{stroke:#021a2c;stroke-width:1px;opacity:.5}</style><defs><linearGradient id="sky" x1="0" y1="0" x2="0" y2="1"><stop offset="0" stop-color="#2f93cd"/><stop offset=".38" stop-color="#7ec8ea"/><stop offset=".74" stop-color="#cfeafa"/><stop offset="1" stop-color="#ffe6b6"/></linearGradient><radialGradient id="sun" cx=".18" cy=".16" r=".6"><stop offset="0" stop-color="#fffbe8" stop-opacity=".95"/><stop offset=".38" stop-color="#ffeab4" stop-opacity=".45"/><stop offset="1" stop-color="#ffe2a0" stop-opacity="0"/></radialGradient><linearGradient id="sea" x1="0" y1="0" x2="0" y2="1"><stop offset="0" stop-color="#6cb9de"/><stop offset=".18" stop-color="#3189bd"/><stop offset=".58" stop-color="#17618f"/><stop offset="1" stop-color="#07375d"/></linearGradient><linearGradient id="deep" x1="0" y1="0" x2="0" y2="1"><stop offset="0" stop-color="#3f9fcf"/><stop offset=".3" stop-color="#1a628e"/><stop offset="1" stop-color="#062b49"/></linearGradient><linearGradient id="mt" x1="0" y1="0" x2="0" y2="1"><stop offset="0" stop-color="#6d89a6"/><stop offset=".3" stop-color="#3a4f68"/><stop offset="1" stop-color="#17222f"/></linearGradient><linearGradient id="mt2" x1="0" y1="0" x2="0" y2="1"><stop offset="0" stop-color="#8aa6c0"/><stop offset="1" stop-color="#3c5069"/></linearGradient><linearGradient id="dk" x1="0" y1="0" x2="0" y2="1"><stop offset="0" stop-color="#fbfdff"/><stop offset="1" stop-color="#aec0d1"/></linearGradient><linearGradient id="warm" x1="0" y1="0" x2="1" y2="1"><stop offset="0" stop-color="#ffdca0" stop-opacity=".42"/><stop offset=".55" stop-color="#ffd9a0" stop-opacity=".08"/><stop offset="1" stop-color="#2a4e78" stop-opacity=".22"/></linearGradient><filter id="sf" x="-45%" y="-90%" width="190%" height="280%"><feGaussianBlur stdDeviation=".85"/></filter><filter id="hz" x="-20%" y="-60%" width="140%" height="220%"><feGaussianBlur stdDeviation=".7"/></filter></defs><rect width="60" height="45" fill="url(#sky)"/><rect width="60" height="45" fill="url(#sun)"/><circle cx="9.5" cy="7.5" r="3.6" fill="#fffdf0" opacity=".9"/><g opacity=".7" filter="url(#hz)"><ellipse cx="24" cy="6" rx="5" ry="2.1" fill="#ffffff"/><ellipse cx="21" cy="7" rx="3" ry="1.7" fill="#f2f8ff"/><ellipse cx="26.8" cy="6.9" rx="2.6" ry="1.5" fill="#eaf3fd"/><ellipse cx="24.5" cy="4.9" rx="2.8" ry="1" fill="#fff6dd"/></g><g opacity=".55" filter="url(#hz)"><ellipse cx="40" cy="11" rx="5.6" ry="2.4" fill="#ffffff"/><ellipse cx="36.6" cy="12.1" rx="3.4" ry="1.9" fill="#f2f8ff"/><ellipse cx="43.1" cy="12" rx="2.9" ry="1.7" fill="#eaf3fd"/><ellipse cx="40.6" cy="9.8" rx="3.1" ry="1.1" fill="#fff6dd"/></g><g opacity=".45" filter="url(#hz)"><ellipse cx="54" cy="16" rx="4" ry="1.7" fill="#ffffff"/><ellipse cx="51.6" cy="16.8" rx="2.4" ry="1.4" fill="#f2f8ff"/><ellipse cx="56.2" cy="16.7" rx="2.1" ry="1.2" fill="#eaf3fd"/><ellipse cx="54.4" cy="15.1" rx="2.2" ry=".8" fill="#fff6dd"/></g><rect y="21" width="60" height="5" fill="#ffeec4" opacity=".5" filter="url(#hz)"/><rect y="26" width="60" height="19" fill="url(#sea)"/><rect y="26" width="60" height="1.3" fill="#eaf7ff" opacity=".62"/><path d="M0 26c6 0 6 1.9 12 1.9S24 26 30 26s6 1.9 12 1.9S54 26 60 26v-1.2H0z" fill="#eaf7ff" opacity=".85"/><path d="M3 28.1h6M14 27.6h5M24 28.6h7M36 27.9h5M46 28.8h8M54 27.7h4M8 29.6h8M30 30.1h6M44 30.4h7" stroke="#bfe3f7" stroke-width=".55" opacity=".5" stroke-linecap="round" fill="none"/><path d="M6.5 26h7l2.5 14H4z" fill="#fff3cf" opacity=".22" filter="url(#hz)"/><path d="M9 27.4h3M8 29h5M10 30.8h4M7.5 32.6h6M9 34.6h5M8 37h7" stroke="#fff3cf" stroke-width=".8" opacity=".55" stroke-linecap="round" fill="none"/><path d="M0 32.6c8-1.1 13 .9 21 .5s13-1.6 22-.9 11 1.1 17 .5V45H0z"   fill="#12588a" opacity=".55"/><path d="M0 34.4c9 0 12 1.6 20 1.2s12-1.8 21-1 12 1.2 19 .6" stroke="#bfe3f7" stroke-width=".5" opacity=".3" fill="none"/><path d="M0 33.4h27l-5 11.6H0z" fill="#e9d69c"/><path d="M0 33.4h27l-1.4 2.6H0z" fill="#c9b276" opacity=".6"/><path d="M0 33.4h27l-.8 1.5H0z" fill="#eaf7ff" opacity=".7"/><path d="M2 39.6c5-1.4 9 .6 14-.8" stroke="#eaf7ff" stroke-width=".9" opacity=".45" fill="none"/><ellipse cx="38" cy="36.2" rx="16" ry="1.9" fill="#062a44" opacity=".42" filter="url(#sf)"/><path d="M33.9 34.6h24.5l7 2.8H39z" fill="#062a44" opacity=".42" filter="url(#sf)"/><path d="M22 28h34l-4 8H22z" fill="url(#mt)"/><path d="M22 28h34v1.1H22z" fill="#9dc2dd"/><path d="M28 29.1h16v.85H28z" fill="#e8f6ff" opacity=".6"/><path d="M30 28v-6h20v6z" fill="url(#dk)"/><path d="M40 22v-5h5v5z" fill="url(#mt2)"/><path d="M22 28l-13 9.4h13z" fill="#4a627c"/><path d="M22 28l-13 9.4" stroke="#e8f6ff" stroke-width=".8" opacity=".5" fill="none"/><path d="M24 35.4H51" stroke="#062a44" stroke-width="1.7" opacity=".6" stroke-linecap="round" filter="url(#hz)"/><path class="r" d="M9 37.4L22 28h33M30 28V22h20M40 22V17h5"/><path class="k" d="M56 28l-4 8M50 22V28M45 17V22"/><rect width="60" height="45" fill="url(#warm)"/></svg>