<svg xmlns="http://www.w3.org/2000/svg" viewBox="0 0 60 45" preserveAspectRatio="xMidYMid slice"><style>.r,.k{fill:none;vector-effect:non-scaling-stroke;stroke-linecap:round;stroke-linejoin:round}.r{stroke:#f4fbff;stroke-width:1.2px;opacity:.85}.k{stroke:#021a2c;stroke-width:1px;opacity:.5}</style><defs><linearGradient id="sky" x1="0" y1="0" x2="0" y2="1"><stop offset="0" stop-color="#2f93cd"/><stop offset=".38" stop-color="#7ec8ea"/><stop offset=".74" stop-color="#cfeafa"/><stop offset="1" stop-color="#ffe6b6"/></linearGradient><radialGradient id="sun" cx=".18" cy=".16" r=".6"><stop offset="0" stop-color="#fffbe8" stop-opacity=".95"/><stop offset=".38" stop-color="#ffeab4" stop-opacity=".45"/><stop offset="1" stop-color="#ffe2a0" stop-opacity="0"/></radialGradient><linearGradient id="sea" x1="0" y1="0" x2="0" y2="1"><stop offset="0" stop-color="#6cb9de"/><stop offset=".18" stop-color="#3189bd"/><stop offset=".58" stop-color="#17618f"/><stop offset="1" stop-color="#07375d"/></linearGradient><linearGradient id="deep" x1="0" y1="0" x2="0" y2="1"><stop offset="0" stop-color="#3f9fcf"/><stop offset=".3" stop-color="#1a628e"/><stop offset="1" stop-color="#062b49"/></linearGradient><linearGradient id="mt" x1="0" y1="0" x2="0" y2="1"><stop offset="0" stop-color="#6d89a6"/><stop offset=".3" stop-color="#3a4f68"/><stop offset="1" stop-color="#17222f"/></linearGradient><linearGradient id="mt2" x1="0" y1="0" x2="0" y2="1"><stop offset="0" stop-color="#8aa6c0"/><stop offset="1" stop-color="#3c5069"/></linearGradient><linearGradient id="dk" x1="0" y1="0" x2="0" y2="1"><stop offset="0" stop-color="#fbfdff"/><stop offset="1" stop-color="#aec0d1"/></linearGradient><linearGradient id="warm" x1="0" y1="0" x2="1" y2="1"><stop offset="0" stop-color="#ffdca0" stop-opacity=".42"/><stop offset=".55" stop-color="#ffd9a0" stop-opacity=".08"/><stop offset="1" stop-color="#2a4e78" stop-opacity=".22"/></linearGradient><filter id="sf" x="-45%" y="-90%" width="190%" height="280%"><feGaussianBlur stdDeviation=".85"/></filter><filter id="hz" x="-20%" y="-60%" width="140%" height="220%"><feGaussianBlur stdDeviation=".7"/></filter></defs><rect width="60" height="45" fill="url(#deep)"/><rect width="60" height="3" fill="#eaf7ff" opacity=".45"/><path d="M0 3c6 0 6 2 12 2s6-2 12-2 6 2 12 2 6-2 12-2 6 2 12 2V0H0z" fill="#eaf7ff" opacity=".5"/><g filter="url(#hz)" opacity=".16"><path d="M2 0h8l14 34h-6z" fill="#eaf7ff"/><path d="M20 0h5l12 30h-5z" fill="#eaf7ff"/><path d="M36 0h6l12 26h-5z" fill="#eaf7ff"/></g><ellipse cx="10" cy="2" rx="9" ry="2.4" fill="#fff6dc" opacity=".5" filter="url(#hz)"/><g fill="#cfe9f7" opacity=".38"><circle cx="9" cy="14" r=".5"/><circle cx="21" cy="9" r=".4"/><circle cx="37" cy="17" r=".55"/><circle cx="52" cy="11" r=".45"/><circle cx="16" cy="31" r=".5"/><circle cx="45" cy="34" r=".4"/><circle cx="56" cy="24" r=".45"/><circle cx="28" cy="38" r=".5"/></g><ellipse cx="34" cy="37" rx="21" ry="2.6" fill="#062a44" opacity=".4" filter="url(#sf)"/><ellipse cx="28" cy="26.5" rx="24" ry="7.6" fill="url(#mt)"/><path d="M6 25.6c8-4 34-4.6 46-1.4" stroke="#5b7692" stroke-width="3" fill="none" opacity=".7" stroke-linecap="round"/><path d="M10 22.6c6-2.4 22-3.2 31-1.4" stroke="#e8f6ff" stroke-width="1.2" fill="none" opacity=".5" stroke-linecap="round"/><path d="M24 19h9v-6.4h-9z" fill="url(#mt2)"/><path d="M24 12.6h9v1h-9z" fill="#9dc2dd"/><path d="M28 12.6V5h1.8v7.6z" fill="#45607c"/><path d="M29.8 5h4.6v1.8h-4.6z" fill="#f2b544"/><path d="M50 24.6l6-3v6z" fill="url(#mt2)"/><circle cx="16" cy="19.6" r="1.1" fill="#7fd0f2" opacity=".85"/><g fill="#eaf7ff" opacity=".7"><circle cx="13" cy="24" r="1.8"/><circle cx="7.5" cy="21.6" r="1.2"/><circle cx="4" cy="18" r=".8"/><circle cx="49" cy="14" r="2"/><circle cx="53" cy="9" r="1.3"/></g><path class="r" d="M4 26.5a24 7.6 0 0 1 24-7.6M24 19V12.6h9"/><path class="k" d="M52 26.5a24 7.6 0 0 1-24 7.6M33 12.6V19"/><path d="M0 40c8-2 12 3 20 2.6s12-3.4 20-2 12 2 20 .6V45H0z" fill="#04223a" opacity=".9"/><path d="M0 40c8-2 12 3 20 2.6s12-3.4 20-2 12 2 20 .6" stroke="#2a6a94" stroke-width=".5" opacity=".35" fill="none"/><path d="M26 41.6H42" stroke="#062a44" stroke-width="2" opacity=".55" stroke-linecap="round" filter="url(#hz)"/></svg>